inDegrees=no
num_controls=7
num_derivatives=13
num_iterations=79
num_multipliers=7
num_parameters=0
num_slacks=7
num_states=26
objective=0.345068
objective_accelerations=0.029814
objective_balance=0.002542
objective_effort=0.037606
objective_height=0.273706
objective_ligament=0.001400
solver_duration=840.879315
status=Solve_Succeeded
success=true
DataType=double
version=3
OpenSimVersion=4.5
endheader
time	/jointset/ground_pelvis/pelvis_tilt/value	/jointset/ground_pelvis/pelvis_tx/value	/jointset/ground_pelvis/pelvis_ty/value	/jointset/hip_r/hip_flexion_r/value	/jointset/hip_r/hip_adduction_r/value	/jointset/hip_r/hip_rotation_r/value	/jointset/back/lumbar_extension/value	/jointset/patellofemoral_r/patellar_flexion_r/value	/jointset/knee_r/knee_flexion_r/value	/jointset/knee_r/knee_adduction_r/value	/jointset/knee_r/knee_rotation_r/value	/jointset/ankle_r/ankle_angle_r/value	/jointset/subtalar_r/subtalar_angle_r/value	/jointset/ground_pelvis/pelvis_tilt/speed	/jointset/ground_pelvis/pelvis_tx/speed	/jointset/ground_pelvis/pelvis_ty/speed	/jointset/hip_r/hip_flexion_r/speed	/jointset/hip_r/hip_adduction_r/speed	/jointset/hip_r/hip_rotation_r/speed	/jointset/back/lumbar_extension/speed	/jointset/patellofemoral_r/patellar_flexion_r/speed	/jointset/knee_r/knee_flexion_r/speed	/jointset/knee_r/knee_adduction_r/speed	/jointset/knee_r/knee_rotation_r/speed	/jointset/ankle_r/ankle_angle_r/speed	/jointset/subtalar_r/subtalar_angle_r/speed	/forceset/tau_hip_flexion_r	/forceset/tau_hip_adduction_r	/forceset/tau_hip_rotation_r	/forceset/tau_knee_flexion_r	/forceset/tau_ankle_angle_r	/forceset/tau_subtalar_angle_r	/forceset/tau_lumbar_extension	lambda_cid13_p0	lambda_cid14_p0	lambda_cid14_p1	lambda_cid14_p2	lambda_cid14_p3	lambda_cid14_p4	lambda_cid14_p5	/jointset/ground_pelvis/pelvis_tilt/accel	/jointset/ground_pelvis/pelvis_tx/accel	/jointset/ground_pelvis/pelvis_ty/accel	/jointset/hip_r/hip_flexion_r/accel	/jointset/hip_r/hip_adduction_r/accel	/jointset/hip_r/hip_rotation_r/accel	/jointset/back/lumbar_extension/accel	/jointset/patellofemoral_r/patellar_flexion_r/accel	/jointset/knee_r/knee_flexion_r/accel	/jointset/knee_r/knee_adduction_r/accel	/jointset/knee_r/knee_rotation_r/accel	/jointset/ankle_r/ankle_angle_r/accel	/jointset/subtalar_r/subtalar_angle_r/accel	gamma_cid13_p0	gamma_cid14_p0	gamma_cid14_p1	gamma_cid14_p2	gamma_cid14_p3	gamma_cid14_p4	gamma_cid14_p5
0.5	-0.4016678096659502	-0.02769003610091549	0.8251636767519662	1.063103932347187	-0.2238315392911147	-0.1479162880841495	-0.6631512568600721	0.647962707874384	0.6479627078743768	0.03433696778303064	0.1744829243618174	0.05223214984162515	0.05705051148452133	-1.092938743840729	-0.3286190689427926	-0.3931989825758723	2.284364524417417	0.03959350432613593	0.1814451344695111	-0.7172088686756727	1.120044337266277	1.120044337265742	-0.3037788991319925	-0.0002603279279963926	-0.004867823256870353	0.04342210541354717	-0.3313124513318766	0.02146241486226408	0.01332179530611732	-0.1142684164263033	0.01968888597336298	-0.004752450098745026	0.3112909446248824	-23.36115325190737	-36.42785822187309	-4.152742551430121	-3.815647125900528	-7.985353016917196	-647.0173811014536	49.16139564504999	0.3680279228503949	0.8385066020564379	-0.1648206848531244	-1.746743913612103	-0.1083816708975239	-0.2927225142891506	2.070816748714718	-0.7675252590276105	-0.7675252590276309	0.4663012345856949	-0.02892361513706814	0.5159144967523407	0.02068156835498074	-6.302555116285788e-08	-8.700658981425249e-09	6.541701733487572e-07	3.712177071218518e-07	-9.536271832666438e-08	-7.229478001172531e-08	1.24135119607654e-07
0.51	-0.4125768129599215	-0.03093408438726801	0.8212243751561319	1.085856746514611	-0.2234410745192921	-0.1461188194665318	-0.6702197713014679	0.6591230694431074	0.6591230694431056	0.03132169369420812	0.1744807860848092	0.05220907479909821	0.05748569536440574	-1.08870603280847	-0.3201730091965966	-0.3945744774116909	2.265905241772681	0.03849243309224613	0.1780548411614394	-0.6964351777194876	1.11187678319907	1.111876783198652	-0.2992341634079567	-0.0001789045824535338	0.0002310306816847928	0.04360078424440714	-0.3419073013313826	0.02256460327354182	0.01326224612969901	-0.1139719355576566	0.01895936533696337	-0.004285376923890223	0.3191333514106493	-22.88953518600372	-36.94178320895909	-4.087688681940792	-3.771406452494984	-8.043458326546975	-651.9812536246388	49.09254999198651	0.4742693270964091	0.8502677695559313	-0.1108898523598419	-1.939485652848442	-0.1118548669266149	-0.3612480580226108	2.089471551643272	-0.864036932342062	-0.864036932324499	0.4549783989748011	0.02502770481416836	0.5035672798097152	0.01456859921381382	-6.150538665779707e-08	5.249980358702782e-09	7.489171584043882e-07	5.706846627785468e-07	-1.219302530622954e-07	-2.156558224188385e-08	1.576297791035781e-07
0.52	-0.4234388138168331	-0.03409314965442759	0.8172739234180566	1.108416174812999	-0.2230617974632673	-0.144355066845785	-0.6770787835767871	0.6701972221808055	0.6701972221808069	0.02835315069416177	0.1744791325203373	0.05223632758343737	0.05792228754435116	-1.083538256428903	-0.3116224651042047	-0.3954290110240532	2.245687350610178	0.0373559611666797	0.1747019350951103	-0.6753084354603891	1.102802571060868	1.102802571060567	-0.2944326813774301	-0.0001633854203419801	0.005197742116344549	0.04370376542575952	-0.3525021513308867	0.02366679168482123	0.01320269695325868	-0.1136754546890107	0.01822984470056404	-0.003818303749033017	0.3269757581964178	-22.41161537199833	-37.45705288293777	-4.024456320706452	-3.725063400810971	-8.111231406805125	-656.9742115188458	49.01095296266537	0.5550409923120219	0.8594034712956129	-0.06062844016185136	-2.098465617165746	-0.1154618092328513	-0.285245065940664	2.141427009297394	-0.9488568732267584	-0.9488568732267326	0.5176504958838578	-0.04210445182332285	0.4894859959732671	0.005542038453461975	-5.909038985901251e-08	6.196540175462603e-09	7.167180399194209e-07	5.50928090332308e-07	-1.181423196807863e-07	-1.617928197938242e-08	1.520495647704333e-07
0.53	-0.4342445290139215	-0.03716628305311732	0.8133175156803255	1.130764876811881	-0.2226940261492919	-0.1426247163987721	-0.6837247842676231	0.6811762026079937	0.6811762026080014	0.02543372937264785	0.1744773428811676	0.05231254642495823	0.05835956280907613	-1.077447160643164	-0.3029953180534795	-0.3957658882180165	2.22377252466008	0.03619896020726333	0.1713522418759218	-0.6538434623609194	1.092848768092737	1.092848768092789	-0.2894389069321262	-0.0001915507150243596	0.01002105856798896	0.04374596147905112	-0.3629892243117782	0.02478404640335641	0.01305490158873298	-0.1132567586727624	0.01720628327286015	-0.003298518127137608	0.3346250063932759	-21.92872286120474	-38.06310084214098	-3.951513782760613	-3.683366200357039	-8.05925242047066	-661.9176817999787	48.93481486166742	0.6597822389504654	0.8656815784622146	-0.007222783417281285	-2.280074069875906	-0.1155665627954447	-0.3622233787967983	2.156268512131668	-1.040342386812853	-1.040342386759923	0.4922846251615917	0.01735949896659494	0.4749765140848664	0.002934874706022808	-5.581464994909526e-08	6.781121776548049e-09	6.786193756096253e-07	5.285121024669456e-07	-1.12275044651783e-07	-1.222779589208698e-08	1.458170344970644e-07
0.54	-0.4449846055797026	-0.04015288272999952	0.809360338085774	1.152886013954074	-0.2223377743096109	-0.1409283412697289	-0.6901546880170923	0.692051304929859	0.6920513049298768	0.02256465453684754	0.1744753780025032	0.05243624283986054	0.05879713533152175	-1.070410530167603	-0.2943157207426987	-0.3955829823881261	2.20017437927222	0.03505206630787098	0.1679068715011785	-0.6320890471870544	1.082026949996344	1.082026949996749	-0.2843633842345047	-0.0001984333194149493	0.01469325679262698	0.04376321696990317	-0.3734762972926705	0.02590130112189025	0.01290710622421081	-0.1128380626565136	0.01618272184515604	-0.002778732505243916	0.3422742545901332	-21.44216620309514	-38.67074806439718	-3.879893119560526	-3.640267967008322	-8.021275544553342	-666.8967242697527	48.85013550871258	0.7441479302763391	0.8698935233067416	0.04332816460891336	-2.43512950471786	-0.1134403972280516	-0.304380497051642	2.199315424176463	-1.122459898878943	-1.12245989887895	0.5340001463473868	-0.03784791376495788	0.4592623505719933	0.0005539259655491847	-5.158659851196735e-08	6.965216841142695e-09	6.339935542170411e-07	5.031537826485103e-07	-1.041072214170415e-07	-9.863763785870508e-09	1.388627929706817e-07
0.55	-0.4556497220136631	-0.04305250365730829	0.8054075688705373	1.174762998542361	-0.2219929842504851	-0.1392666302826008	-0.6963656504766673	0.7028138976694898	0.7028138976694975	0.01974691583345226	0.1744732669061101	0.05260582254286081	0.05923467465494615	-1.06245810923366	-0.2856062069217594	-0.3948850042939782	2.174953978095654	0.03390370834218942	0.1644245896895301	-0.6100702744623852	1.070351780793898	1.070351780794079	-0.2791645429868551	-0.0002199425980552833	0.01919210091703627	0.04373403764683863	-0.3836331874199017	0.0269184351748924	0.01269236712252586	-0.112543473053133	0.01521911192293253	-0.002252605898377287	0.3495698811136548	-20.95356899295494	-39.25244373551596	-3.802845595984227	-3.595898088240079	-7.945081371385029	-671.7435372645795	48.78360555142702	0.8439826241643127	0.8717990506717916	0.09590937174259927	-2.605782534161542	-0.1157333416014908	-0.3717671529639861	2.208133736424552	-1.2110081452318	-1.211008145265486	0.515922519790083	0.01635039121059446	0.4405791698361605	-0.006090378159461812	-4.755562022638495e-08	7.402959928718832e-09	5.889810470363669e-07	4.756266528209876e-07	-9.690885846457444e-08	-6.142048845953532e-09	1.314313238326177e-07
0.5600000000000001	-0.4662306755484413	-0.04586496569857079	0.801464354784227	1.196379721696875	-0.2216597177400892	-0.1376400651395369	-0.7023554301010332	0.7134555461742359	0.7134555461742301	0.01698178482369886	0.1744710712821545	0.05281946743239736	0.05967163488179646	-1.053577950331279	-0.2768839435334442	-0.3936719566028334	2.148122092517666	0.03274735656197645	0.1608777026881794	-0.5878524801452211	1.057838103019276	1.057838103019232	-0.2738418455065521	-0.0002153388317287468	0.02350629409987618	0.04364739765509382	-0.3937900775471345	0.02793556922789519	0.012477628020829	-0.1122488834497527	0.01425550200070948	-0.001726479291509587	0.3568655076371746	-20.46648869768713	-39.83512657021298	-3.726636249091407	-3.550634355980979	-7.89223994016339	-676.6220185644072	48.70991850834581	0.9296955239638383	0.8724434367819111	0.146342084008287	-2.757426385002297	-0.1150391601343375	-0.317301534992127	2.239119742675427	-1.290161613314252	-1.290161613314261	0.558771392878074	-0.03262530477157694	0.4223321622581202	-0.01093820777050827	-4.376112972265715e-08	8.145080643872748e-09	5.435045169099848e-07	4.454969509825601e-07	-9.087384785083682e-08	-7.911145055959996e-10	1.234271815605362e-07
0.5700000000000001	-0.4767182943677366	-0.04859020909711208	0.7975358122412153	1.21772032756997	-0.2213380349243022	-0.1360490911722889	-0.7081220543011693	0.7239679854385009	0.7239679854385053	0.01427050105069146	0.1744688764027218	0.05307531330184271	0.06010745580829417	-1.043792166406673	-0.2681682277525802	-0.3919523856548545	2.119742642391426	0.03159081911479299	0.1573013011473928	-0.5654517945189416	1.044517301423219	1.044517301423291	-0.2684077747103948	-0.0002173238063957946	0.02763090303317417	0.04351036458685395	-0.4036202116717184	0.02887837615154214	0.01219926433468392	-0.1120167186183907	0.01326465567896034	-0.001187000497864823	0.3638131349569098	-19.98174806555233	-40.41688862066334	-3.644876733755993	-3.505787507297147	-7.784141456505928	-681.3282609327492	48.6476437169886	1.026064076530834	0.8705944200486297	0.1973899990216447	-2.916672412942623	-0.1156029554641363	-0.3801824448474409	2.243627777041473	-1.37289837140893	-1.372898371391527	0.5369008478405803	0.01702939286741333	0.4027042914827016	-0.01591618363914747	-3.999223170535105e-08	8.663873584462269e-09	4.975365823482767e-07	4.135089132984111e-07	-8.456615800353499e-08	3.918651605026632e-09	1.149388188434173e-07
0.58	-0.4871034464978208	-0.05122840358358272	0.7936269904874491	1.2387694453245	-0.2210278458666784	-0.1344943558166917	-0.7136640546841551	0.734343244899077	0.7343432448990872	0.01161379317062573	0.174466864570875	0.05337144106714449	0.06054174033865176	-1.033084612489195	-0.2594741611193124	-0.3897277987537148	2.089824468804875	0.03044860492945691	0.1536299803575865	-0.5429277167151733	1.030402142280863	1.030402142281051	-0.2629266669199976	-0.0001787293137951134	0.03156267327115464	0.04334011842707734	-0.4134503457963036	0.02982118307519275	0.01192090064849846	-0.1117845537870307	0.01227380935721261	-0.0006475217042146779	0.3707607622766427	-19.499595225882	-41.00043436272881	-3.563656256684995	-3.460595502215181	-7.701478243894331	-686.0797437828129	48.5822400899003	1.114049522538421	0.8681136072626709	0.2473452746404331	-3.065171077064289	-0.1121745077648639	-0.3362853847960789	2.263798178173162	-1.449033122573983	-1.449033122573986	0.5681787917260444	-0.02450941131802473	0.3837644231946181	-0.01758082607785902	-3.625666343780348e-08	8.891821051200492e-09	4.509286792196327e-07	3.791007173035554e-07	-7.790335101484728e-08	7.793407928087517e-09	1.058198434536918e-07
